<?xml version="1.0" standalone="no"?>
<!DOCTYPE svg PUBLIC "-//W3C//DTD SVG 20010904//EN"
 "http://www.w3.org/TR/2001/REC-SVG-20010904/DTD/svg10.dtd">
<svg version="1.0" xmlns="http://www.w3.org/2000/svg"
 width="600.000000pt" height="600.000000pt" viewBox="0 0 600.000000 600.000000"
 preserveAspectRatio="xMidYMid meet">
<metadata>
Created by potrace 1.11, written by Peter Selinger 2001-2013
</metadata>
<g transform="translate(0.000000,600.000000) scale(0.100000,-0.100000)"
fill="#000000" stroke="none">
<path d="M2630 5684 c-195 -113 -373 -216 -395 -228 -22 -13 -94 -55 -160 -93
-66 -39 -140 -81 -165 -95 -25 -14 -128 -74 -230 -133 -320 -186 -513 -297
-559 -323 -25 -14 -68 -38 -95 -55 -28 -17 -60 -35 -71 -41 -93 -53 -135 -79
-133 -81 2 -3 653 -379 803 -465 471 -269 460 -264 489 -248 62 33 235 131
271 152 22 14 56 33 75 44 19 11 100 56 179 102 203 116 239 136 299 167 l53
28 82 -45 c45 -24 167 -93 272 -153 104 -60 210 -121 235 -135 25 -14 86 -48
135 -76 50 -28 111 -61 137 -74 l47 -23 98 57 c54 31 118 68 143 82 64 36 532
305 925 532 17 9 45 26 63 37 l33 21 -113 65 c-63 36 -129 74 -148 85 -19 10
-91 52 -160 92 -68 40 -138 81 -155 90 -95 53 -446 257 -477 277 -21 12 -39
23 -42 23 -2 0 -33 17 -67 38 -35 22 -89 53 -119 69 -30 17 -165 94 -298 172
-134 78 -248 141 -253 141 -5 0 -9 5 -9 10 0 6 -4 10 -10 10 -5 0 -55 27 -111
60 -55 33 -102 60 -104 60 -2 0 -27 14 -55 30 -28 17 -52 30 -53 30 -1 -1
-162 -93 -357 -206z"/>
<path d="M489 4307 c-1 -78 -1 -728 -2 -1445 0 -1109 2 -1305 14 -1317 8 -7
75 -48 149 -91 74 -42 209 -119 300 -172 91 -52 181 -104 200 -115 73 -41 297
-171 340 -197 25 -16 70 -42 100 -58 30 -16 134 -76 230 -132 96 -56 204 -118
240 -138 36 -19 72 -41 81 -48 8 -8 18 -14 21 -14 3 0 72 -39 154 -86 82 -48
165 -96 184 -106 19 -11 137 -78 261 -149 124 -71 232 -129 239 -129 7 0 108
55 224 121 116 67 227 131 246 141 19 11 136 79 260 150 124 72 288 166 365
211 77 44 160 92 185 107 25 15 142 83 260 150 118 68 291 168 384 222 92 54
170 98 173 98 3 0 17 8 31 19 15 10 50 30 77 45 28 15 106 59 175 99 l125 73
2 1444 c0 795 -1 1448 -3 1451 -2 4 -223 -119 -491 -273 -269 -155 -551 -317
-629 -362 l-141 -81 -1 -690 c0 -379 -1 -706 -1 -725 -1 -38 20 -23 -295 -205
-29 -16 -119 -68 -200 -115 -81 -47 -164 -94 -184 -106 -20 -11 -149 -84 -286
-162 -137 -78 -257 -144 -267 -147 -13 -4 -50 11 -107 43 -132 76 -582 332
-627 358 -22 13 -47 27 -55 31 -8 4 -74 42 -148 85 -73 43 -137 78 -142 78 -6
0 -10 5 -10 10 0 6 -6 10 -12 11 -7 0 -44 20 -83 44 l-70 43 -2 658 c0 363 -2
689 -2 725 l-1 66 -276 159 c-152 88 -293 168 -313 180 -284 164 -554 318
-623 357 l-48 27 -1 -143z"/>
</g>
</svg>
