<?xml version="1.0" encoding="UTF-8" standalone="no"?>
<svg
   xmlns:dc="http://purl.org/dc/elements/1.1/"
   xmlns:cc="http://creativecommons.org/ns#"
   xmlns:rdf="http://www.w3.org/1999/02/22-rdf-syntax-ns#"
   xmlns:svg="http://www.w3.org/2000/svg"
   xmlns="http://www.w3.org/2000/svg"
   xmlns:sodipodi="http://sodipodi.sourceforge.net/DTD/sodipodi-0.dtd"
   xmlns:inkscape="http://www.inkscape.org/namespaces/inkscape"
   width="32"
   height="32"
   version="1.1"
   id="svg8"
   sodipodi:docname="trx.svg"
   inkscape:version="0.92.5 (2060ec1f9f, 2020-04-08)">
  <metadata
     id="metadata14">
    <rdf:RDF>
      <cc:Work
         rdf:about="">
        <dc:format>image/svg+xml</dc:format>
        <dc:type
           rdf:resource="http://purl.org/dc/dcmitype/StillImage" />
      </cc:Work>
    </rdf:RDF>
  </metadata>
  <defs
     id="defs12" />
  <sodipodi:namedview
     pagecolor="#ffffff"
     bordercolor="#666666"
     borderopacity="1"
     objecttolerance="10"
     gridtolerance="10"
     guidetolerance="10"
     inkscape:pageopacity="0"
     inkscape:pageshadow="2"
     inkscape:window-width="1060"
     inkscape:window-height="768"
     id="namedview10"
     showgrid="false"
     inkscape:zoom="10.429825"
     inkscape:cx="5.5859377"
     inkscape:cy="15.602154"
     inkscape:window-x="1691"
     inkscape:window-y="33"
     inkscape:window-maximized="0"
     inkscape:current-layer="g6" />
  <g
     id="g6"
     style="fill:none">
    <path
       d="M 28.880002,8.5710681 C 27.623283,7.6792535 26.278483,6.7276693 24.963567,5.7839502 c -0.02988,-0.02202 -0.0582,-0.04404 -0.09437,-0.06606 A 1.7616091,1.7616091 0 0 0 24.353296,5.423764 l -0.01573,-0.00786 C 20.82064,4.5539695 17.243945,3.6700192 13.785214,2.8143805 L 4.3731885,0.49125848 4.1262487,0.42519848 C 3.8431329,0.34498198 3.5159769,0.25532868 3.1668008,0.29936888 a 0.66217629,0.66217629 0 0 0 -0.2673871,0.1038091 l -0.08808,0.073925 a 1.085277,1.085277 0 0 0 -0.2469403,0.3979349 l -0.02202,0.059769 V 1.2729729 l 0.015729,0.051905 c 1.9818102,5.6387212 4.0170979,11.3592331 5.9800332,16.8941461 1.5115244,4.262465 3.0828164,8.675925 4.6147864,13.010742 0.09437,0.294125 0.363332,0.487588 0.698353,0.515899 h 0.07235 a 0.81631708,0.81631708 0 0 0 0.726664,-0.405799 l 5.756687,-8.51392 c 1.401423,-2.071463 2.804418,-4.149218 4.207414,-6.220682 l 1.722288,-2.551187 c 0.943719,-1.39985 1.918895,-2.845314 2.886208,-4.2530283 l 0.05033,-0.072352 V 9.6390437 C 29.295236,9.3810938 29.301526,8.8510382 28.88,8.5694953 m -6.744446,3.1048357 c -1.352665,0.714081 -2.732067,1.451755 -4.120908,2.181565 l 2.428504,-2.639268 c 1.00978,-1.105725 2.0636,-2.2491978 3.095399,-3.3690779 l 0.02202,-0.02202 c 0.08651,-0.1179649 0.196609,-0.2280654 0.313001,-0.3460303 0.07864,-0.080216 0.166723,-0.1620052 0.24694,-0.2579499 0.537919,0.3774876 1.082131,0.7596939 1.605895,1.1356087 0.377488,0.2721057 0.76284,0.5457843 1.156056,0.8178899 a 404.55196,404.55196 0 0 0 -4.746905,2.4992825 m -3.472887,-0.353894 c -1.039664,1.1419 -2.115503,2.313685 -3.183479,3.471313 A 2057.5076,2057.5076 0 0 0 9.2427786,7.1554893 L 6.4446521,3.742371 6.4383606,3.7345067 C 6.2275967,3.4922854 6.0231242,3.2264712 5.8202246,2.9763856 5.6896768,2.8065162 5.5512646,2.644511 5.4128525,2.4746416 6.2559083,2.6948427 7.1068279,2.9024609 7.9420194,3.100642 8.6765476,3.2783757 9.4393876,3.462401 10.188071,3.6542906 l 12.653701,3.117419 c -1.402996,1.5193885 -2.813856,3.0592236 -4.179103,4.5487274 m -3.656911,14.366551 c 0.08022,-0.773849 0.168296,-1.569719 0.240648,-2.351433 0.06606,-0.627574 0.130548,-1.26773 0.196608,-1.879574 0.100664,-0.981468 0.210764,-1.997539 0.298845,-2.993163 l 0.02045,-0.176161 c 0.07235,-0.635437 0.144704,-1.289749 0.188744,-1.947207 a 2.1705541,2.1705541 0 0 1 0.262668,-0.125829 c 0.108528,-0.05033 0.217056,-0.09437 0.325583,-0.160433 1.67982,-0.893387 3.358067,-1.785202 5.044179,-2.669152 1.67982,-0.88395 3.402107,-1.799358 5.110239,-2.705328 a 1471.3714,1471.3714 0 0 0 -4.630515,6.841964 c -1.30076,1.922041 -2.637695,3.905424 -3.968339,5.858923 -0.522192,0.781714 -1.067975,1.577584 -1.583875,2.343569 -0.58196,0.855639 -1.178076,1.731725 -1.758464,2.610957 0.07235,-0.885524 0.15886,-1.777338 0.253232,-2.647133 M 4.8765054,4.2142306 C 4.7821335,3.9484164 4.6783244,3.6763107 4.5918168,3.4183608 c 1.9629359,2.4033381 3.9384538,4.8208327 5.8652142,7.1644022 0.995624,1.215825 1.991248,2.425358 2.986872,3.649047 0.196608,0.228066 0.393216,0.47186 0.58196,0.70779 0.24694,0.30199 0.493879,0.619709 0.762839,0.921699 -0.08808,0.758121 -0.160432,1.525679 -0.240648,2.26178 -0.05033,0.5159 -0.100663,1.033373 -0.158859,1.557137 v 0.0063 c -0.02202,0.330302 -0.06606,0.663749 -0.102237,0.98776 l -0.166723,1.467483 -0.0079,0.05033 c -0.130548,1.489503 -0.29098,2.993162 -0.443548,4.452781 -0.06449,0.603981 -0.122683,1.22369 -0.188744,1.843398 -0.03618,-0.1101 -0.07864,-0.221774 -0.116392,-0.325583 A 33.108814,33.108814 0 0 1 13.04436,27.256715 L 12.265826,25.067279 4.8749325,4.2142306"
       id="path4"
       inkscape:connector-curvature="0"
       style="fill:#f9f9f9;stroke-width:1.57286525" />
  </g>
</svg>
